<mxfile host="app.diagrams.net" modified="2024-01-02T09:29:58.020Z" agent="Mozilla/5.0 (Windows NT 10.0; Win64; x64) AppleWebKit/537.36 (KHTML, like Gecko) Chrome/120.0.0.0 Safari/537.36" etag="jjTtpZN02TOnQLzxVr84" version="22.1.16" type="device">
  <diagram id="jbVRNizJcDCQ8yqokmnY" name="第 1 页">
    <mxGraphModel dx="858" dy="1338" grid="1" gridSize="10" guides="1" tooltips="1" connect="1" arrows="1" fold="1" page="1" pageScale="1" pageWidth="2336" pageHeight="1654" math="0" shadow="0">
      <root>
        <mxCell id="0" />
        <mxCell id="1" parent="0" />
        <mxCell id="_HgupfXg40LZJNDoUt4P-441" value="" style="rounded=0;whiteSpace=wrap;html=1;" vertex="1" parent="1">
          <mxGeometry x="70" y="40" width="1650" height="1210" as="geometry" />
        </mxCell>
        <mxCell id="_HgupfXg40LZJNDoUt4P-353" value="&lt;font style=&quot;font-size: 23px;&quot;&gt;員工表&lt;/font&gt;" style="swimlane;fontStyle=0;childLayout=stackLayout;horizontal=1;startSize=30;horizontalStack=0;resizeParent=1;resizeParentMax=0;resizeLast=0;collapsible=1;marginBottom=0;whiteSpace=wrap;html=1;strokeWidth=1;fontSize=23;fillColor=#dae8fc;strokeColor=#6c8ebf;" vertex="1" parent="1">
          <mxGeometry x="490" y="80" width="380" height="320" as="geometry">
            <mxRectangle x="380" y="580" width="110" height="40" as="alternateBounds" />
          </mxGeometry>
        </mxCell>
        <mxCell id="_HgupfXg40LZJNDoUt4P-354" value="員工ID&amp;nbsp; &amp;nbsp; &amp;nbsp; &amp;nbsp; &amp;nbsp; &amp;nbsp;varchar(10)&amp;nbsp; &amp;nbsp; &amp;nbsp;&amp;lt;pk&amp;gt;" style="text;align=left;verticalAlign=middle;spacingLeft=4;spacingRight=4;overflow=hidden;points=[[0,0.5],[1,0.5]];portConstraint=eastwest;rotatable=0;whiteSpace=wrap;html=1;strokeWidth=1;fontSize=23;fillColor=#dae8fc;strokeColor=#6c8ebf;" vertex="1" parent="_HgupfXg40LZJNDoUt4P-353">
          <mxGeometry y="30" width="380" height="40" as="geometry" />
        </mxCell>
        <mxCell id="_HgupfXg40LZJNDoUt4P-355" value="管理員ID&amp;nbsp; &amp;nbsp; &amp;nbsp; &amp;nbsp; varchar(10)&amp;nbsp; &amp;nbsp; &amp;nbsp;&amp;lt;fk&amp;gt;" style="text;align=left;verticalAlign=middle;spacingLeft=4;spacingRight=4;overflow=hidden;points=[[0,0.5],[1,0.5]];portConstraint=eastwest;rotatable=0;whiteSpace=wrap;html=1;strokeWidth=1;fontSize=23;fillColor=#dae8fc;strokeColor=#6c8ebf;" vertex="1" parent="_HgupfXg40LZJNDoUt4P-353">
          <mxGeometry y="70" width="380" height="40" as="geometry" />
        </mxCell>
        <mxCell id="_HgupfXg40LZJNDoUt4P-356" value="員工姓名&amp;nbsp; &amp;nbsp; &amp;nbsp; &amp;nbsp; varchar(20)&amp;nbsp; &amp;nbsp;" style="text;align=left;verticalAlign=middle;spacingLeft=4;spacingRight=4;overflow=hidden;points=[[0,0.5],[1,0.5]];portConstraint=eastwest;rotatable=0;whiteSpace=wrap;html=1;strokeWidth=1;fontSize=23;fillColor=#dae8fc;strokeColor=#6c8ebf;" vertex="1" parent="_HgupfXg40LZJNDoUt4P-353">
          <mxGeometry y="110" width="380" height="50" as="geometry" />
        </mxCell>
        <mxCell id="_HgupfXg40LZJNDoUt4P-371" value="員工密碼&amp;nbsp; &amp;nbsp; &amp;nbsp; &amp;nbsp; varchar(6)&amp;nbsp;" style="text;align=left;verticalAlign=middle;spacingLeft=4;spacingRight=4;overflow=hidden;points=[[0,0.5],[1,0.5]];portConstraint=eastwest;rotatable=0;whiteSpace=wrap;html=1;strokeWidth=1;fontSize=23;fillColor=#dae8fc;strokeColor=#6c8ebf;" vertex="1" parent="_HgupfXg40LZJNDoUt4P-353">
          <mxGeometry y="160" width="380" height="40" as="geometry" />
        </mxCell>
        <mxCell id="_HgupfXg40LZJNDoUt4P-370" value="證件號碼&amp;nbsp; &amp;nbsp; &amp;nbsp; &amp;nbsp; varchar(20)&amp;nbsp;" style="text;align=left;verticalAlign=middle;spacingLeft=4;spacingRight=4;overflow=hidden;points=[[0,0.5],[1,0.5]];portConstraint=eastwest;rotatable=0;whiteSpace=wrap;html=1;strokeWidth=1;fontSize=23;fillColor=#dae8fc;strokeColor=#6c8ebf;" vertex="1" parent="_HgupfXg40LZJNDoUt4P-353">
          <mxGeometry y="200" width="380" height="40" as="geometry" />
        </mxCell>
        <mxCell id="_HgupfXg40LZJNDoUt4P-369" value="聯繫地址&amp;nbsp; &amp;nbsp; &amp;nbsp; &amp;nbsp; varchar(50)&amp;nbsp;" style="text;align=left;verticalAlign=middle;spacingLeft=4;spacingRight=4;overflow=hidden;points=[[0,0.5],[1,0.5]];portConstraint=eastwest;rotatable=0;whiteSpace=wrap;html=1;strokeWidth=1;fontSize=23;fillColor=#dae8fc;strokeColor=#6c8ebf;" vertex="1" parent="_HgupfXg40LZJNDoUt4P-353">
          <mxGeometry y="240" width="380" height="40" as="geometry" />
        </mxCell>
        <mxCell id="_HgupfXg40LZJNDoUt4P-368" value="聯繫電話&amp;nbsp; &amp;nbsp; &amp;nbsp; &amp;nbsp; varchar(12)&amp;nbsp;" style="text;align=left;verticalAlign=middle;spacingLeft=4;spacingRight=4;overflow=hidden;points=[[0,0.5],[1,0.5]];portConstraint=eastwest;rotatable=0;whiteSpace=wrap;html=1;strokeWidth=1;fontSize=23;fillColor=#dae8fc;strokeColor=#6c8ebf;" vertex="1" parent="_HgupfXg40LZJNDoUt4P-353">
          <mxGeometry y="280" width="380" height="40" as="geometry" />
        </mxCell>
        <mxCell id="_HgupfXg40LZJNDoUt4P-372" value="&lt;font style=&quot;font-size: 23px;&quot;&gt;用戶信息表&lt;/font&gt;" style="swimlane;fontStyle=0;childLayout=stackLayout;horizontal=1;startSize=30;horizontalStack=0;resizeParent=1;resizeParentMax=0;resizeLast=0;collapsible=1;marginBottom=0;whiteSpace=wrap;html=1;strokeWidth=1;fontSize=23;fillColor=#dae8fc;strokeColor=#6c8ebf;" vertex="1" parent="1">
          <mxGeometry x="170" y="460" width="380" height="360" as="geometry">
            <mxRectangle x="380" y="580" width="110" height="40" as="alternateBounds" />
          </mxGeometry>
        </mxCell>
        <mxCell id="_HgupfXg40LZJNDoUt4P-373" value="用戶ID&amp;nbsp; &amp;nbsp; &amp;nbsp; &amp;nbsp; &amp;nbsp; &amp;nbsp;varchar(10)&amp;nbsp; &amp;nbsp; &amp;nbsp;&amp;lt;pk&amp;gt;" style="text;align=left;verticalAlign=middle;spacingLeft=4;spacingRight=4;overflow=hidden;points=[[0,0.5],[1,0.5]];portConstraint=eastwest;rotatable=0;whiteSpace=wrap;html=1;strokeWidth=1;fontSize=23;fillColor=#dae8fc;strokeColor=#6c8ebf;" vertex="1" parent="_HgupfXg40LZJNDoUt4P-372">
          <mxGeometry y="30" width="380" height="40" as="geometry" />
        </mxCell>
        <mxCell id="_HgupfXg40LZJNDoUt4P-374" value="員工ID&amp;nbsp; &amp;nbsp; &amp;nbsp; &amp;nbsp; &amp;nbsp; &amp;nbsp;varchar(10)&amp;nbsp; &amp;nbsp; &amp;nbsp;&amp;lt;fk&amp;gt;" style="text;align=left;verticalAlign=middle;spacingLeft=4;spacingRight=4;overflow=hidden;points=[[0,0.5],[1,0.5]];portConstraint=eastwest;rotatable=0;whiteSpace=wrap;html=1;strokeWidth=1;fontSize=23;fillColor=#dae8fc;strokeColor=#6c8ebf;" vertex="1" parent="_HgupfXg40LZJNDoUt4P-372">
          <mxGeometry y="70" width="380" height="40" as="geometry" />
        </mxCell>
        <mxCell id="_HgupfXg40LZJNDoUt4P-375" value="用戶密碼&amp;nbsp; &amp;nbsp; &amp;nbsp; &amp;nbsp; varchar(6)&amp;nbsp; &amp;nbsp;" style="text;align=left;verticalAlign=middle;spacingLeft=4;spacingRight=4;overflow=hidden;points=[[0,0.5],[1,0.5]];portConstraint=eastwest;rotatable=0;whiteSpace=wrap;html=1;strokeWidth=1;fontSize=23;fillColor=#dae8fc;strokeColor=#6c8ebf;" vertex="1" parent="_HgupfXg40LZJNDoUt4P-372">
          <mxGeometry y="110" width="380" height="50" as="geometry" />
        </mxCell>
        <mxCell id="_HgupfXg40LZJNDoUt4P-376" value="證件號碼&amp;nbsp; &amp;nbsp; &amp;nbsp; &amp;nbsp; varchar(20)&amp;nbsp;" style="text;align=left;verticalAlign=middle;spacingLeft=4;spacingRight=4;overflow=hidden;points=[[0,0.5],[1,0.5]];portConstraint=eastwest;rotatable=0;whiteSpace=wrap;html=1;strokeWidth=1;fontSize=23;fillColor=#dae8fc;strokeColor=#6c8ebf;" vertex="1" parent="_HgupfXg40LZJNDoUt4P-372">
          <mxGeometry y="160" width="380" height="40" as="geometry" />
        </mxCell>
        <mxCell id="_HgupfXg40LZJNDoUt4P-377" value="真實姓名&amp;nbsp; &amp;nbsp; &amp;nbsp; &amp;nbsp;varchar(20)&amp;nbsp;" style="text;align=left;verticalAlign=middle;spacingLeft=4;spacingRight=4;overflow=hidden;points=[[0,0.5],[1,0.5]];portConstraint=eastwest;rotatable=0;whiteSpace=wrap;html=1;strokeWidth=1;fontSize=23;fillColor=#dae8fc;strokeColor=#6c8ebf;" vertex="1" parent="_HgupfXg40LZJNDoUt4P-372">
          <mxGeometry y="200" width="380" height="40" as="geometry" />
        </mxCell>
        <mxCell id="_HgupfXg40LZJNDoUt4P-378" value="聯繫地址&amp;nbsp; &amp;nbsp; &amp;nbsp; &amp;nbsp; varchar(50)&amp;nbsp;" style="text;align=left;verticalAlign=middle;spacingLeft=4;spacingRight=4;overflow=hidden;points=[[0,0.5],[1,0.5]];portConstraint=eastwest;rotatable=0;whiteSpace=wrap;html=1;strokeWidth=1;fontSize=23;fillColor=#dae8fc;strokeColor=#6c8ebf;" vertex="1" parent="_HgupfXg40LZJNDoUt4P-372">
          <mxGeometry y="240" width="380" height="40" as="geometry" />
        </mxCell>
        <mxCell id="_HgupfXg40LZJNDoUt4P-382" value="郵政編號&amp;nbsp; &amp;nbsp; &amp;nbsp; &amp;nbsp; varchar(20)" style="text;align=left;verticalAlign=middle;spacingLeft=4;spacingRight=4;overflow=hidden;points=[[0,0.5],[1,0.5]];portConstraint=eastwest;rotatable=0;whiteSpace=wrap;html=1;strokeWidth=1;fontSize=23;fillColor=#dae8fc;strokeColor=#6c8ebf;" vertex="1" parent="_HgupfXg40LZJNDoUt4P-372">
          <mxGeometry y="280" width="380" height="40" as="geometry" />
        </mxCell>
        <mxCell id="_HgupfXg40LZJNDoUt4P-379" value="聯繫電話&amp;nbsp; &amp;nbsp; &amp;nbsp; &amp;nbsp; varchar(12)&amp;nbsp;" style="text;align=left;verticalAlign=middle;spacingLeft=4;spacingRight=4;overflow=hidden;points=[[0,0.5],[1,0.5]];portConstraint=eastwest;rotatable=0;whiteSpace=wrap;html=1;strokeWidth=1;fontSize=23;fillColor=#dae8fc;strokeColor=#6c8ebf;" vertex="1" parent="_HgupfXg40LZJNDoUt4P-372">
          <mxGeometry y="320" width="380" height="40" as="geometry" />
        </mxCell>
        <mxCell id="_HgupfXg40LZJNDoUt4P-384" value="&lt;font style=&quot;font-size: 23px;&quot;&gt;管理員信息表&lt;/font&gt;" style="swimlane;fontStyle=0;childLayout=stackLayout;horizontal=1;startSize=30;horizontalStack=0;resizeParent=1;resizeParentMax=0;resizeLast=0;collapsible=1;marginBottom=0;whiteSpace=wrap;html=1;strokeWidth=1;fontSize=23;fillColor=#dae8fc;strokeColor=#6c8ebf;" vertex="1" parent="1">
          <mxGeometry x="1160" y="110" width="380" height="160" as="geometry">
            <mxRectangle x="380" y="580" width="110" height="40" as="alternateBounds" />
          </mxGeometry>
        </mxCell>
        <mxCell id="_HgupfXg40LZJNDoUt4P-386" value="管理員ID&amp;nbsp; &amp;nbsp; &amp;nbsp; &amp;nbsp; varchar(10)&amp;nbsp; &amp;nbsp; &amp;nbsp;&amp;lt;pk&amp;gt;" style="text;align=left;verticalAlign=middle;spacingLeft=4;spacingRight=4;overflow=hidden;points=[[0,0.5],[1,0.5]];portConstraint=eastwest;rotatable=0;whiteSpace=wrap;html=1;strokeWidth=1;fontSize=23;fillColor=#dae8fc;strokeColor=#6c8ebf;" vertex="1" parent="_HgupfXg40LZJNDoUt4P-384">
          <mxGeometry y="30" width="380" height="40" as="geometry" />
        </mxCell>
        <mxCell id="_HgupfXg40LZJNDoUt4P-387" value="管理員姓名&amp;nbsp; &amp;nbsp; &amp;nbsp; &amp;nbsp; varchar(20)&amp;nbsp; &amp;nbsp;" style="text;align=left;verticalAlign=middle;spacingLeft=4;spacingRight=4;overflow=hidden;points=[[0,0.5],[1,0.5]];portConstraint=eastwest;rotatable=0;whiteSpace=wrap;html=1;strokeWidth=1;fontSize=23;fillColor=#dae8fc;strokeColor=#6c8ebf;" vertex="1" parent="_HgupfXg40LZJNDoUt4P-384">
          <mxGeometry y="70" width="380" height="50" as="geometry" />
        </mxCell>
        <mxCell id="_HgupfXg40LZJNDoUt4P-388" value="管理員密碼&amp;nbsp; &amp;nbsp; &amp;nbsp; &amp;nbsp; varchar(6)&amp;nbsp;" style="text;align=left;verticalAlign=middle;spacingLeft=4;spacingRight=4;overflow=hidden;points=[[0,0.5],[1,0.5]];portConstraint=eastwest;rotatable=0;whiteSpace=wrap;html=1;strokeWidth=1;fontSize=23;fillColor=#dae8fc;strokeColor=#6c8ebf;" vertex="1" parent="_HgupfXg40LZJNDoUt4P-384">
          <mxGeometry y="120" width="380" height="40" as="geometry" />
        </mxCell>
        <mxCell id="_HgupfXg40LZJNDoUt4P-393" value="&lt;font style=&quot;font-size: 23px;&quot;&gt;列車信息表&lt;/font&gt;" style="swimlane;fontStyle=0;childLayout=stackLayout;horizontal=1;startSize=30;horizontalStack=0;resizeParent=1;resizeParentMax=0;resizeLast=0;collapsible=1;marginBottom=0;whiteSpace=wrap;html=1;strokeWidth=1;fontSize=23;fillColor=#dae8fc;strokeColor=#6c8ebf;" vertex="1" parent="1">
          <mxGeometry x="1210" y="370" width="380" height="360" as="geometry">
            <mxRectangle x="380" y="580" width="110" height="40" as="alternateBounds" />
          </mxGeometry>
        </mxCell>
        <mxCell id="_HgupfXg40LZJNDoUt4P-402" value="始發站&amp;nbsp; &amp;nbsp; &amp;nbsp; &amp;nbsp; &amp;nbsp; &amp;nbsp;varchar(20)&amp;nbsp;" style="text;align=left;verticalAlign=middle;spacingLeft=4;spacingRight=4;overflow=hidden;points=[[0,0.5],[1,0.5]];portConstraint=eastwest;rotatable=0;whiteSpace=wrap;html=1;strokeWidth=1;fontSize=23;fillColor=#dae8fc;strokeColor=#6c8ebf;" vertex="1" parent="_HgupfXg40LZJNDoUt4P-393">
          <mxGeometry y="30" width="380" height="40" as="geometry" />
        </mxCell>
        <mxCell id="_HgupfXg40LZJNDoUt4P-394" value="車次&amp;nbsp; &amp;nbsp; &amp;nbsp; &amp;nbsp; &amp;nbsp; &amp;nbsp; &amp;nbsp; &amp;nbsp;varchar(10)&amp;nbsp; &amp;nbsp; &amp;nbsp;&amp;lt;pk&amp;gt;" style="text;align=left;verticalAlign=middle;spacingLeft=4;spacingRight=4;overflow=hidden;points=[[0,0.5],[1,0.5]];portConstraint=eastwest;rotatable=0;whiteSpace=wrap;html=1;strokeWidth=1;fontSize=23;fillColor=#dae8fc;strokeColor=#6c8ebf;" vertex="1" parent="_HgupfXg40LZJNDoUt4P-393">
          <mxGeometry y="70" width="380" height="40" as="geometry" />
        </mxCell>
        <mxCell id="_HgupfXg40LZJNDoUt4P-395" value="管理員ID&amp;nbsp; &amp;nbsp; &amp;nbsp; &amp;nbsp; varchar(10)&amp;nbsp; &amp;nbsp; &amp;nbsp;&amp;lt;fk&amp;gt;" style="text;align=left;verticalAlign=middle;spacingLeft=4;spacingRight=4;overflow=hidden;points=[[0,0.5],[1,0.5]];portConstraint=eastwest;rotatable=0;whiteSpace=wrap;html=1;strokeWidth=1;fontSize=23;fillColor=#dae8fc;strokeColor=#6c8ebf;" vertex="1" parent="_HgupfXg40LZJNDoUt4P-393">
          <mxGeometry y="110" width="380" height="40" as="geometry" />
        </mxCell>
        <mxCell id="_HgupfXg40LZJNDoUt4P-396" value="終點站&amp;nbsp; &amp;nbsp; &amp;nbsp; &amp;nbsp; &amp;nbsp; &amp;nbsp; varchar(20)&amp;nbsp; &amp;nbsp;" style="text;align=left;verticalAlign=middle;spacingLeft=4;spacingRight=4;overflow=hidden;points=[[0,0.5],[1,0.5]];portConstraint=eastwest;rotatable=0;whiteSpace=wrap;html=1;strokeWidth=1;fontSize=23;fillColor=#dae8fc;strokeColor=#6c8ebf;" vertex="1" parent="_HgupfXg40LZJNDoUt4P-393">
          <mxGeometry y="150" width="380" height="50" as="geometry" />
        </mxCell>
        <mxCell id="_HgupfXg40LZJNDoUt4P-397" value="發車時間&amp;nbsp; &amp;nbsp; &amp;nbsp; &amp;nbsp; &amp;nbsp;timestamp" style="text;align=left;verticalAlign=middle;spacingLeft=4;spacingRight=4;overflow=hidden;points=[[0,0.5],[1,0.5]];portConstraint=eastwest;rotatable=0;whiteSpace=wrap;html=1;strokeWidth=1;fontSize=23;fillColor=#dae8fc;strokeColor=#6c8ebf;" vertex="1" parent="_HgupfXg40LZJNDoUt4P-393">
          <mxGeometry y="200" width="380" height="40" as="geometry" />
        </mxCell>
        <mxCell id="_HgupfXg40LZJNDoUt4P-398" value="停靠站&amp;nbsp; &amp;nbsp; &amp;nbsp; &amp;nbsp; &amp;nbsp; &amp;nbsp; varchar(20)&amp;nbsp;" style="text;align=left;verticalAlign=middle;spacingLeft=4;spacingRight=4;overflow=hidden;points=[[0,0.5],[1,0.5]];portConstraint=eastwest;rotatable=0;whiteSpace=wrap;html=1;strokeWidth=1;fontSize=23;fillColor=#dae8fc;strokeColor=#6c8ebf;" vertex="1" parent="_HgupfXg40LZJNDoUt4P-393">
          <mxGeometry y="240" width="380" height="40" as="geometry" />
        </mxCell>
        <mxCell id="_HgupfXg40LZJNDoUt4P-399" value="到站時間&amp;nbsp; &amp;nbsp; &amp;nbsp; &amp;nbsp; &amp;nbsp;timestamp" style="text;align=left;verticalAlign=middle;spacingLeft=4;spacingRight=4;overflow=hidden;points=[[0,0.5],[1,0.5]];portConstraint=eastwest;rotatable=0;whiteSpace=wrap;html=1;strokeWidth=1;fontSize=23;fillColor=#dae8fc;strokeColor=#6c8ebf;" vertex="1" parent="_HgupfXg40LZJNDoUt4P-393">
          <mxGeometry y="280" width="380" height="40" as="geometry" />
        </mxCell>
        <mxCell id="_HgupfXg40LZJNDoUt4P-400" value="票種&amp;nbsp; &amp;nbsp; &amp;nbsp; &amp;nbsp; &amp;nbsp; &amp;nbsp; &amp;nbsp; &amp;nbsp; &amp;nbsp;integer" style="text;align=left;verticalAlign=middle;spacingLeft=4;spacingRight=4;overflow=hidden;points=[[0,0.5],[1,0.5]];portConstraint=eastwest;rotatable=0;whiteSpace=wrap;html=1;strokeWidth=1;fontSize=23;fillColor=#dae8fc;strokeColor=#6c8ebf;" vertex="1" parent="_HgupfXg40LZJNDoUt4P-393">
          <mxGeometry y="320" width="380" height="40" as="geometry" />
        </mxCell>
        <mxCell id="_HgupfXg40LZJNDoUt4P-404" value="&lt;font style=&quot;font-size: 23px;&quot;&gt;送票者信息表&lt;/font&gt;" style="swimlane;fontStyle=0;childLayout=stackLayout;horizontal=1;startSize=30;horizontalStack=0;resizeParent=1;resizeParentMax=0;resizeLast=0;collapsible=1;marginBottom=0;whiteSpace=wrap;html=1;strokeWidth=1;fontSize=23;fillColor=#dae8fc;strokeColor=#6c8ebf;" vertex="1" parent="1">
          <mxGeometry x="100" y="1054" width="380" height="110" as="geometry">
            <mxRectangle x="380" y="580" width="110" height="40" as="alternateBounds" />
          </mxGeometry>
        </mxCell>
        <mxCell id="_HgupfXg40LZJNDoUt4P-405" value="送票者ID&amp;nbsp; &amp;nbsp; &amp;nbsp; &amp;nbsp; &amp;nbsp; &amp;nbsp;varchar(10)&amp;nbsp; &amp;nbsp; &amp;nbsp;&amp;lt;pk&amp;gt;" style="text;align=left;verticalAlign=middle;spacingLeft=4;spacingRight=4;overflow=hidden;points=[[0,0.5],[1,0.5]];portConstraint=eastwest;rotatable=0;whiteSpace=wrap;html=1;strokeWidth=1;fontSize=23;fillColor=#dae8fc;strokeColor=#6c8ebf;" vertex="1" parent="_HgupfXg40LZJNDoUt4P-404">
          <mxGeometry y="30" width="380" height="40" as="geometry" />
        </mxCell>
        <mxCell id="_HgupfXg40LZJNDoUt4P-408" value="送票者姓名&amp;nbsp; &amp;nbsp; &amp;nbsp; &amp;nbsp; varchar(20)&amp;nbsp;" style="text;align=left;verticalAlign=middle;spacingLeft=4;spacingRight=4;overflow=hidden;points=[[0,0.5],[1,0.5]];portConstraint=eastwest;rotatable=0;whiteSpace=wrap;html=1;strokeWidth=1;fontSize=23;fillColor=#dae8fc;strokeColor=#6c8ebf;" vertex="1" parent="_HgupfXg40LZJNDoUt4P-404">
          <mxGeometry y="70" width="380" height="40" as="geometry" />
        </mxCell>
        <mxCell id="_HgupfXg40LZJNDoUt4P-414" value="&lt;font style=&quot;font-size: 23px;&quot;&gt;訂單信息表&lt;/font&gt;" style="swimlane;fontStyle=0;childLayout=stackLayout;horizontal=1;startSize=30;horizontalStack=0;resizeParent=1;resizeParentMax=0;resizeLast=0;collapsible=1;marginBottom=0;whiteSpace=wrap;html=1;strokeWidth=1;fontSize=23;fillColor=#dae8fc;strokeColor=#6c8ebf;" vertex="1" parent="1">
          <mxGeometry x="740" y="580" width="380" height="520" as="geometry">
            <mxRectangle x="380" y="580" width="110" height="40" as="alternateBounds" />
          </mxGeometry>
        </mxCell>
        <mxCell id="_HgupfXg40LZJNDoUt4P-416" value="訂單號&amp;nbsp; &amp;nbsp; &amp;nbsp; &amp;nbsp; &amp;nbsp; &amp;nbsp; varchar(10)&amp;nbsp; &amp;nbsp; &amp;nbsp;&amp;lt;pk&amp;gt;" style="text;align=left;verticalAlign=middle;spacingLeft=4;spacingRight=4;overflow=hidden;points=[[0,0.5],[1,0.5]];portConstraint=eastwest;rotatable=0;whiteSpace=wrap;html=1;strokeWidth=1;fontSize=23;fillColor=#dae8fc;strokeColor=#6c8ebf;" vertex="1" parent="_HgupfXg40LZJNDoUt4P-414">
          <mxGeometry y="30" width="380" height="40" as="geometry" />
        </mxCell>
        <mxCell id="_HgupfXg40LZJNDoUt4P-424" value="火車票 票種&amp;nbsp; &amp;nbsp; varchar(10)&amp;nbsp; &amp;nbsp; &amp;nbsp;&amp;lt;fk3&amp;gt;" style="text;align=left;verticalAlign=middle;spacingLeft=4;spacingRight=4;overflow=hidden;points=[[0,0.5],[1,0.5]];portConstraint=eastwest;rotatable=0;whiteSpace=wrap;html=1;strokeWidth=1;fontSize=23;fillColor=#dae8fc;strokeColor=#6c8ebf;" vertex="1" parent="_HgupfXg40LZJNDoUt4P-414">
          <mxGeometry y="70" width="380" height="40" as="geometry" />
        </mxCell>
        <mxCell id="_HgupfXg40LZJNDoUt4P-417" value="送票者ID&amp;nbsp; &amp;nbsp; &amp;nbsp; &amp;nbsp; &amp;nbsp;varchar(10)&amp;nbsp; &amp;nbsp; &amp;nbsp;&amp;lt;fk1&amp;gt;" style="text;align=left;verticalAlign=middle;spacingLeft=4;spacingRight=4;overflow=hidden;points=[[0,0.5],[1,0.5]];portConstraint=eastwest;rotatable=0;whiteSpace=wrap;html=1;strokeWidth=1;fontSize=23;fillColor=#dae8fc;strokeColor=#6c8ebf;" vertex="1" parent="_HgupfXg40LZJNDoUt4P-414">
          <mxGeometry y="110" width="380" height="40" as="geometry" />
        </mxCell>
        <mxCell id="_HgupfXg40LZJNDoUt4P-425" value="用戶ID&amp;nbsp; &amp;nbsp; &amp;nbsp; &amp;nbsp; &amp;nbsp; &amp;nbsp; &amp;nbsp;varchar(10)&amp;nbsp; &amp;nbsp; &amp;nbsp;&amp;lt;fk2&amp;gt;" style="text;align=left;verticalAlign=middle;spacingLeft=4;spacingRight=4;overflow=hidden;points=[[0,0.5],[1,0.5]];portConstraint=eastwest;rotatable=0;whiteSpace=wrap;html=1;strokeWidth=1;fontSize=23;fillColor=#dae8fc;strokeColor=#6c8ebf;" vertex="1" parent="_HgupfXg40LZJNDoUt4P-414">
          <mxGeometry y="150" width="380" height="40" as="geometry" />
        </mxCell>
        <mxCell id="_HgupfXg40LZJNDoUt4P-418" value="乘車日期&amp;nbsp; &amp;nbsp; &amp;nbsp; &amp;nbsp; &amp;nbsp; data" style="text;align=left;verticalAlign=middle;spacingLeft=4;spacingRight=4;overflow=hidden;points=[[0,0.5],[1,0.5]];portConstraint=eastwest;rotatable=0;whiteSpace=wrap;html=1;strokeWidth=1;fontSize=23;fillColor=#dae8fc;strokeColor=#6c8ebf;" vertex="1" parent="_HgupfXg40LZJNDoUt4P-414">
          <mxGeometry y="190" width="380" height="50" as="geometry" />
        </mxCell>
        <mxCell id="_HgupfXg40LZJNDoUt4P-419" value="車次&amp;nbsp; &amp;nbsp; &amp;nbsp; &amp;nbsp; &amp;nbsp; &amp;nbsp; &amp;nbsp; &amp;nbsp; varchar(10)&amp;nbsp;" style="text;align=left;verticalAlign=middle;spacingLeft=4;spacingRight=4;overflow=hidden;points=[[0,0.5],[1,0.5]];portConstraint=eastwest;rotatable=0;whiteSpace=wrap;html=1;strokeWidth=1;fontSize=23;fillColor=#dae8fc;strokeColor=#6c8ebf;" vertex="1" parent="_HgupfXg40LZJNDoUt4P-414">
          <mxGeometry y="240" width="380" height="40" as="geometry" />
        </mxCell>
        <mxCell id="_HgupfXg40LZJNDoUt4P-420" value="始發站&amp;nbsp; &amp;nbsp; &amp;nbsp; &amp;nbsp; &amp;nbsp; &amp;nbsp; varchar(20)&amp;nbsp;" style="text;align=left;verticalAlign=middle;spacingLeft=4;spacingRight=4;overflow=hidden;points=[[0,0.5],[1,0.5]];portConstraint=eastwest;rotatable=0;whiteSpace=wrap;html=1;strokeWidth=1;fontSize=23;fillColor=#dae8fc;strokeColor=#6c8ebf;" vertex="1" parent="_HgupfXg40LZJNDoUt4P-414">
          <mxGeometry y="280" width="380" height="40" as="geometry" />
        </mxCell>
        <mxCell id="_HgupfXg40LZJNDoUt4P-421" value="終點站&amp;nbsp; &amp;nbsp; &amp;nbsp; &amp;nbsp; &amp;nbsp; &amp;nbsp; varchar(20)&amp;nbsp;" style="text;align=left;verticalAlign=middle;spacingLeft=4;spacingRight=4;overflow=hidden;points=[[0,0.5],[1,0.5]];portConstraint=eastwest;rotatable=0;whiteSpace=wrap;html=1;strokeWidth=1;fontSize=23;fillColor=#dae8fc;strokeColor=#6c8ebf;" vertex="1" parent="_HgupfXg40LZJNDoUt4P-414">
          <mxGeometry y="320" width="380" height="40" as="geometry" />
        </mxCell>
        <mxCell id="_HgupfXg40LZJNDoUt4P-422" value="席別&amp;nbsp; &amp;nbsp; &amp;nbsp; &amp;nbsp; &amp;nbsp; &amp;nbsp; &amp;nbsp; &amp;nbsp; varchar(10)&amp;nbsp;" style="text;align=left;verticalAlign=middle;spacingLeft=4;spacingRight=4;overflow=hidden;points=[[0,0.5],[1,0.5]];portConstraint=eastwest;rotatable=0;whiteSpace=wrap;html=1;strokeWidth=1;fontSize=23;fillColor=#dae8fc;strokeColor=#6c8ebf;" vertex="1" parent="_HgupfXg40LZJNDoUt4P-414">
          <mxGeometry y="360" width="380" height="40" as="geometry" />
        </mxCell>
        <mxCell id="_HgupfXg40LZJNDoUt4P-428" value="票種&amp;nbsp; &amp;nbsp; &amp;nbsp; &amp;nbsp; &amp;nbsp; &amp;nbsp; &amp;nbsp; &amp;nbsp; varchar(10)&amp;nbsp;" style="text;align=left;verticalAlign=middle;spacingLeft=4;spacingRight=4;overflow=hidden;points=[[0,0.5],[1,0.5]];portConstraint=eastwest;rotatable=0;whiteSpace=wrap;html=1;strokeWidth=1;fontSize=23;fillColor=#dae8fc;strokeColor=#6c8ebf;" vertex="1" parent="_HgupfXg40LZJNDoUt4P-414">
          <mxGeometry y="400" width="380" height="40" as="geometry" />
        </mxCell>
        <mxCell id="_HgupfXg40LZJNDoUt4P-427" value="張數&amp;nbsp; &amp;nbsp; &amp;nbsp; &amp;nbsp; &amp;nbsp; &amp;nbsp; &amp;nbsp; &amp;nbsp; varchar(10)&amp;nbsp;" style="text;align=left;verticalAlign=middle;spacingLeft=4;spacingRight=4;overflow=hidden;points=[[0,0.5],[1,0.5]];portConstraint=eastwest;rotatable=0;whiteSpace=wrap;html=1;strokeWidth=1;fontSize=23;fillColor=#dae8fc;strokeColor=#6c8ebf;" vertex="1" parent="_HgupfXg40LZJNDoUt4P-414">
          <mxGeometry y="440" width="380" height="40" as="geometry" />
        </mxCell>
        <mxCell id="_HgupfXg40LZJNDoUt4P-426" value="備註&amp;nbsp; &amp;nbsp; &amp;nbsp; &amp;nbsp; &amp;nbsp; &amp;nbsp; &amp;nbsp; &amp;nbsp; long varchar" style="text;align=left;verticalAlign=middle;spacingLeft=4;spacingRight=4;overflow=hidden;points=[[0,0.5],[1,0.5]];portConstraint=eastwest;rotatable=0;whiteSpace=wrap;html=1;strokeWidth=1;fontSize=23;fillColor=#dae8fc;strokeColor=#6c8ebf;" vertex="1" parent="_HgupfXg40LZJNDoUt4P-414">
          <mxGeometry y="480" width="380" height="40" as="geometry" />
        </mxCell>
        <mxCell id="_HgupfXg40LZJNDoUt4P-430" value="&lt;font style=&quot;font-size: 23px;&quot;&gt;火車票表&lt;/font&gt;" style="swimlane;fontStyle=0;childLayout=stackLayout;horizontal=1;startSize=30;horizontalStack=0;resizeParent=1;resizeParentMax=0;resizeLast=0;collapsible=1;marginBottom=0;whiteSpace=wrap;html=1;strokeWidth=1;fontSize=23;fillColor=#dae8fc;strokeColor=#6c8ebf;" vertex="1" parent="1">
          <mxGeometry x="1290" y="890" width="380" height="150" as="geometry">
            <mxRectangle x="380" y="580" width="110" height="40" as="alternateBounds" />
          </mxGeometry>
        </mxCell>
        <mxCell id="_HgupfXg40LZJNDoUt4P-431" value="票種&amp;nbsp; &amp;nbsp; &amp;nbsp; &amp;nbsp; &amp;nbsp; &amp;nbsp;varchar(10)&amp;nbsp; &amp;nbsp; &amp;nbsp;&amp;lt;pk&amp;gt;" style="text;align=left;verticalAlign=middle;spacingLeft=4;spacingRight=4;overflow=hidden;points=[[0,0.5],[1,0.5]];portConstraint=eastwest;rotatable=0;whiteSpace=wrap;html=1;strokeWidth=1;fontSize=23;fillColor=#dae8fc;strokeColor=#6c8ebf;" vertex="1" parent="_HgupfXg40LZJNDoUt4P-430">
          <mxGeometry y="30" width="380" height="40" as="geometry" />
        </mxCell>
        <mxCell id="_HgupfXg40LZJNDoUt4P-432" value="車次&amp;nbsp; &amp;nbsp; &amp;nbsp; &amp;nbsp; varchar(20)&amp;nbsp;" style="text;align=left;verticalAlign=middle;spacingLeft=4;spacingRight=4;overflow=hidden;points=[[0,0.5],[1,0.5]];portConstraint=eastwest;rotatable=0;whiteSpace=wrap;html=1;strokeWidth=1;fontSize=23;fillColor=#dae8fc;strokeColor=#6c8ebf;" vertex="1" parent="_HgupfXg40LZJNDoUt4P-430">
          <mxGeometry y="70" width="380" height="40" as="geometry" />
        </mxCell>
        <mxCell id="_HgupfXg40LZJNDoUt4P-435" value="張數&amp;nbsp; &amp;nbsp; &amp;nbsp; &amp;nbsp; varchar(10)&amp;nbsp;" style="text;align=left;verticalAlign=middle;spacingLeft=4;spacingRight=4;overflow=hidden;points=[[0,0.5],[1,0.5]];portConstraint=eastwest;rotatable=0;whiteSpace=wrap;html=1;strokeWidth=1;fontSize=23;fillColor=#dae8fc;strokeColor=#6c8ebf;" vertex="1" parent="_HgupfXg40LZJNDoUt4P-430">
          <mxGeometry y="110" width="380" height="40" as="geometry" />
        </mxCell>
        <mxCell id="_HgupfXg40LZJNDoUt4P-436" value="" style="endArrow=classic;html=1;rounded=0;exitX=1;exitY=0.5;exitDx=0;exitDy=0;entryX=0;entryY=0.75;entryDx=0;entryDy=0;strokeWidth=3;" edge="1" parent="1" source="_HgupfXg40LZJNDoUt4P-371" target="_HgupfXg40LZJNDoUt4P-384">
          <mxGeometry width="50" height="50" relative="1" as="geometry">
            <mxPoint x="1020" y="420" as="sourcePoint" />
            <mxPoint x="1070" y="370" as="targetPoint" />
          </mxGeometry>
        </mxCell>
        <mxCell id="_HgupfXg40LZJNDoUt4P-437" value="" style="endArrow=classic;html=1;rounded=0;exitX=0.638;exitY=0.005;exitDx=0;exitDy=0;strokeWidth=3;exitPerimeter=0;" edge="1" parent="1" source="_HgupfXg40LZJNDoUt4P-393" target="_HgupfXg40LZJNDoUt4P-388">
          <mxGeometry width="50" height="50" relative="1" as="geometry">
            <mxPoint x="910" y="510" as="sourcePoint" />
            <mxPoint x="1200" y="480" as="targetPoint" />
          </mxGeometry>
        </mxCell>
        <mxCell id="_HgupfXg40LZJNDoUt4P-438" value="" style="endArrow=classic;html=1;rounded=0;entryX=1;entryY=0.5;entryDx=0;entryDy=0;exitX=0;exitY=0.5;exitDx=0;exitDy=0;strokeWidth=3;" edge="1" parent="1" source="_HgupfXg40LZJNDoUt4P-425" target="_HgupfXg40LZJNDoUt4P-372">
          <mxGeometry width="50" height="50" relative="1" as="geometry">
            <mxPoint x="610" y="890" as="sourcePoint" />
            <mxPoint x="660" y="840" as="targetPoint" />
          </mxGeometry>
        </mxCell>
        <mxCell id="_HgupfXg40LZJNDoUt4P-439" value="" style="endArrow=classic;html=1;rounded=0;entryX=1;entryY=0.5;entryDx=0;entryDy=0;exitX=-0.01;exitY=0.836;exitDx=0;exitDy=0;exitPerimeter=0;strokeWidth=3;" edge="1" parent="1" source="_HgupfXg40LZJNDoUt4P-421" target="_HgupfXg40LZJNDoUt4P-405">
          <mxGeometry width="50" height="50" relative="1" as="geometry">
            <mxPoint x="580" y="970" as="sourcePoint" />
            <mxPoint x="630" y="920" as="targetPoint" />
          </mxGeometry>
        </mxCell>
        <mxCell id="_HgupfXg40LZJNDoUt4P-440" value="" style="endArrow=classic;html=1;rounded=0;exitX=1;exitY=0.5;exitDx=0;exitDy=0;entryX=0.5;entryY=0;entryDx=0;entryDy=0;strokeWidth=3;" edge="1" parent="1" source="_HgupfXg40LZJNDoUt4P-419" target="_HgupfXg40LZJNDoUt4P-430">
          <mxGeometry width="50" height="50" relative="1" as="geometry">
            <mxPoint x="1340" y="830" as="sourcePoint" />
            <mxPoint x="1390" y="780" as="targetPoint" />
          </mxGeometry>
        </mxCell>
      </root>
    </mxGraphModel>
  </diagram>
</mxfile>
